REM DIRINDEX 1\2,1\3,1\4
REM DIRNAME folder01,folder02,folder03,folder04
TITLE ""
FILE "056 056_TOEFL_3900.mp3" MP3
  TRACK 01 AUDIO
    TITLE "2:cjc151_2410"
    INDEX 01 00:00:00
  TRACK 02 AUDIO
    TITLE "0:"
    INDEX 01 00:01:42
  TRACK 03 AUDIO
    TITLE "3:cjc151_2411"
    INDEX 01 00:03:17
  TRACK 04 AUDIO
    TITLE "0:"
    INDEX 01 00:07:15
  TRACK 05 AUDIO
    TITLE "2:cjc151_2412"
    INDEX 01 00:08:68
  TRACK 06 AUDIO
    TITLE "0:"
    INDEX 01 00:09:69
  TRACK 07 AUDIO
    TITLE "3:cjc151_2413"
    INDEX 01 00:11:48
  TRACK 08 AUDIO
    TITLE "0:"
    INDEX 01 00:14:45
  TRACK 09 AUDIO
    TITLE "2:cjc151_2414"
    INDEX 01 00:16:20
  TRACK 10 AUDIO
    TITLE "0:"
    INDEX 01 00:17:33
  TRACK 11 AUDIO
    TITLE "3:cjc151_2415"
    INDEX 01 00:19:09
  TRACK 12 AUDIO
    TITLE "0:"
    INDEX 01 00:23:10
  TRACK 13 AUDIO
    TITLE "2:cjc151_2416"
    INDEX 01 00:24:63
  TRACK 14 AUDIO
    TITLE "0:"
    INDEX 01 00:25:68
  TRACK 15 AUDIO
    TITLE "3:cjc151_2417"
    INDEX 01 00:27:45
  TRACK 16 AUDIO
    TITLE "0:"
    INDEX 01 00:31:69
  TRACK 17 AUDIO
    TITLE "2:cjc151_2418"
    INDEX 01 00:33:73
  TRACK 18 AUDIO
    TITLE "0:"
    INDEX 01 00:34:59
  TRACK 19 AUDIO
    TITLE "3:cjc151_2419"
    INDEX 01 00:36:36
  TRACK 20 AUDIO
    TITLE "0:"
    INDEX 01 00:40:17
  TRACK 21 AUDIO
    TITLE "2:cjc151_2420"
    INDEX 01 00:41:71
  TRACK 22 AUDIO
    TITLE "0:"
    INDEX 01 00:42:59
  TRACK 23 AUDIO
    TITLE "3:cjc151_2421"
    INDEX 01 00:44:36
  TRACK 24 AUDIO
    TITLE "0:"
    INDEX 01 00:48:08
  TRACK 25 AUDIO
    TITLE "2:cjc151_2422"
    INDEX 01 00:49:61
  TRACK 26 AUDIO
    TITLE "0:"
    INDEX 01 00:51:03
  TRACK 27 AUDIO
    TITLE "3:cjc151_2423"
    INDEX 01 00:52:55
  TRACK 28 AUDIO
    TITLE "0:"
    INDEX 01 00:57:09
  TRACK 29 AUDIO
    TITLE "2:cjc151_2424"
    INDEX 01 00:58:66
  TRACK 30 AUDIO
    TITLE "0:"
    INDEX 01 01:00:08
  TRACK 31 AUDIO
    TITLE "3:cjc151_2425"
    INDEX 01 01:01:58
  TRACK 32 AUDIO
    TITLE "0:"
    INDEX 01 01:05:46
  TRACK 33 AUDIO
    TITLE "2:cjc151_2426"
    INDEX 01 01:07:25
  TRACK 34 AUDIO
    TITLE "0:"
    INDEX 01 01:08:40
  TRACK 35 AUDIO
    TITLE "3:cjc151_2427"
    INDEX 01 01:10:22
  TRACK 36 AUDIO
    TITLE "0:"
    INDEX 01 01:13:61
  TRACK 37 AUDIO
    TITLE "2:cjc151_2428"
    INDEX 01 01:15:39
  TRACK 38 AUDIO
    TITLE "0:"
    INDEX 01 01:16:42
  TRACK 39 AUDIO
    TITLE "3:cjc151_2429"
    INDEX 01 01:18:21
  TRACK 40 AUDIO
    TITLE "0:"
    INDEX 01 01:22:72
  TRACK 41 AUDIO
    TITLE "2:cjc151_2430"
    INDEX 01 01:24:49
  TRACK 42 AUDIO
    TITLE "0:"
    INDEX 01 01:25:66
  TRACK 43 AUDIO
    TITLE "3:cjc151_2431"
    INDEX 01 01:27:46
  TRACK 44 AUDIO
    TITLE "0:"
    INDEX 01 01:32:25
  TRACK 45 AUDIO
    TITLE "2:cjc151_2432"
    INDEX 01 01:34:05
  TRACK 46 AUDIO
    TITLE "0:"
    INDEX 01 01:35:08
  TRACK 47 AUDIO
    TITLE "3:cjc151_2433"
    INDEX 01 01:36:60
  TRACK 48 AUDIO
    TITLE "0:"
    INDEX 01 01:40:40
  TRACK 49 AUDIO
    TITLE "2:cjc151_2434"
    INDEX 01 01:42:20
  TRACK 50 AUDIO
    TITLE "0:"
    INDEX 01 01:43:51
  TRACK 51 AUDIO
    TITLE "3:cjc151_2435"
    INDEX 01 01:45:28
  TRACK 52 AUDIO
    TITLE "0:"
    INDEX 01 01:48:73
  TRACK 53 AUDIO
    TITLE "2:cjc151_2436"
    INDEX 01 01:50:53
  TRACK 54 AUDIO
    TITLE "0:"
    INDEX 01 01:51:62
  TRACK 55 AUDIO
    TITLE "3:cjc151_2437"
    INDEX 01 01:53:41
  TRACK 56 AUDIO
    TITLE "0:"
    INDEX 01 01:57:41
  TRACK 57 AUDIO
    TITLE "2:cjc151_2438"
    INDEX 01 01:59:22
  TRACK 58 AUDIO
    TITLE "0:"
    INDEX 01 02:00:24
  TRACK 59 AUDIO
    TITLE "3:cjc151_2439"
    INDEX 01 02:02:03
  TRACK 60 AUDIO
    TITLE "0:"
    INDEX 01 02:05:19
  TRACK 61 AUDIO
    TITLE "2:cjc151_2440"
    INDEX 01 02:06:73
  TRACK 62 AUDIO
    TITLE "0:"
    INDEX 01 02:08:15
  TRACK 63 AUDIO
    TITLE "3:cjc151_2441"
    INDEX 01 02:09:68
  TRACK 64 AUDIO
    TITLE "0:"
    INDEX 01 02:13:54
  TRACK 65 AUDIO
    TITLE "2:cjc151_2442"
    INDEX 01 02:15:31
  TRACK 66 AUDIO
    TITLE "0:"
    INDEX 01 02:16:42
  TRACK 67 AUDIO
    TITLE "3:cjc151_2443"
    INDEX 01 02:18:19
  TRACK 68 AUDIO
    TITLE "0:"
    INDEX 01 02:22:45
  TRACK 69 AUDIO
    TITLE "2:cjc151_2444"
    INDEX 01 02:24:22
  TRACK 70 AUDIO
    TITLE "0:"
    INDEX 01 02:25:37
  TRACK 71 AUDIO
    TITLE "3:cjc151_2445"
    INDEX 01 02:27:14
  TRACK 72 AUDIO
    TITLE "0:"
    INDEX 01 02:31:67
  TRACK 73 AUDIO
    TITLE "2:cjc151_2446"
    INDEX 01 02:33:46
  TRACK 74 AUDIO
    TITLE "0:"
    INDEX 01 02:34:71
  TRACK 75 AUDIO
    TITLE "3:cjc151_2447"
    INDEX 01 02:36:47
  TRACK 76 AUDIO
    TITLE "0:"
    INDEX 01 02:41:11
  TRACK 77 AUDIO
    TITLE "2:cjc151_2448"
    INDEX 01 02:42:65
  TRACK 78 AUDIO
    TITLE "0:"
    INDEX 01 02:43:68
  TRACK 79 AUDIO
    TITLE "3:cjc151_2449"
    INDEX 01 02:45:46
  TRACK 80 AUDIO
    TITLE "0:"
    INDEX 01 02:49:42
  TRACK 81 AUDIO
    TITLE "2:cjc151_2450"
    INDEX 01 02:51:19
  TRACK 82 AUDIO
    TITLE "0:"
    INDEX 01 02:52:14
  TRACK 83 AUDIO
    TITLE "3:cjc151_2451"
    INDEX 01 02:53:73
  TRACK 84 AUDIO
    TITLE "0:"
    INDEX 01 02:58:09
  TRACK 85 AUDIO
    TITLE "2:cjc151_2452"
    INDEX 01 02:59:63
  TRACK 86 AUDIO
    TITLE "0:"
    INDEX 01 03:00:73
  TRACK 87 AUDIO
    TITLE "3:cjc151_2453"
    INDEX 01 03:02:50
  TRACK 88 AUDIO
    TITLE "0:"
    INDEX 01 03:05:43
